<svg width="20" height="20" viewBox="0 0 20 20" fill="none" xmlns="http://www.w3.org/2000/svg">
<circle cx="10" cy="10" r="10" fill="#FFF200"/>
<path fill-rule="evenodd" clip-rule="evenodd" d="M10.9545 4.75C10.9545 4.33579 10.6188 4 10.2045 4C9.79033 4 9.45455 4.33579 9.45455 4.75V9.45455H4.75C4.33579 9.45455 4 9.79033 4 10.2045C4 10.6188 4.33579 10.9545 4.75 10.9545H9.45455V15.25C9.45455 15.6642 9.79033 16 10.2045 16C10.6188 16 10.9545 15.6642 10.9545 15.25V10.9545H15.25C15.6642 10.9545 16 10.6188 16 10.2045C16 9.79033 15.6642 9.45455 15.25 9.45455H10.9545V4.75Z" fill="black"/>
<path d="M9.45455 9.45455V9.70455C9.59262 9.70455 9.70455 9.59262 9.70455 9.45455H9.45455ZM9.45455 10.9545H9.70455C9.70455 10.8165 9.59262 10.7045 9.45455 10.7045V10.9545ZM10.9545 10.9545V10.7045C10.8165 10.7045 10.7045 10.8165 10.7045 10.9545H10.9545ZM10.9545 9.45455H10.7045C10.7045 9.59262 10.8165 9.70455 10.9545 9.70455V9.45455ZM10.2045 4.25C10.4807 4.25 10.7045 4.47386 10.7045 4.75H11.2045C11.2045 4.19772 10.7568 3.75 10.2045 3.75V4.25ZM9.70455 4.75C9.70455 4.47386 9.9284 4.25 10.2045 4.25V3.75C9.65226 3.75 9.20455 4.19772 9.20455 4.75H9.70455ZM9.70455 9.45455V4.75H9.20455V9.45455H9.70455ZM4.75 9.70455H9.45455V9.20455H4.75V9.70455ZM4.25 10.2045C4.25 9.9284 4.47386 9.70455 4.75 9.70455V9.20455C4.19772 9.20455 3.75 9.65226 3.75 10.2045H4.25ZM4.75 10.7045C4.47386 10.7045 4.25 10.4807 4.25 10.2045H3.75C3.75 10.7568 4.19772 11.2045 4.75 11.2045V10.7045ZM9.45455 10.7045H4.75V11.2045H9.45455V10.7045ZM9.70455 15.25V10.9545H9.20455V15.25H9.70455ZM10.2045 15.75C9.9284 15.75 9.70455 15.5261 9.70455 15.25H9.20455C9.20455 15.8023 9.65226 16.25 10.2045 16.25V15.75ZM10.7045 15.25C10.7045 15.5261 10.4807 15.75 10.2045 15.75V16.25C10.7568 16.25 11.2045 15.8023 11.2045 15.25H10.7045ZM10.7045 10.9545V15.25H11.2045V10.9545H10.7045ZM15.25 10.7045H10.9545V11.2045H15.25V10.7045ZM15.75 10.2045C15.75 10.4807 15.5261 10.7045 15.25 10.7045V11.2045C15.8023 11.2045 16.25 10.7568 16.25 10.2045H15.75ZM15.25 9.70455C15.5261 9.70455 15.75 9.9284 15.75 10.2045H16.25C16.25 9.65226 15.8023 9.20455 15.25 9.20455V9.70455ZM10.9545 9.70455H15.25V9.20455H10.9545V9.70455ZM10.7045 4.75V9.45455H11.2045V4.75H10.7045Z" fill="black"/>
</svg>
