<svg id="Layer_1" data-name="Layer 1" xmlns="http://www.w3.org/2000/svg" viewBox="0 0 364.97 364.97"><defs><style>.cls-1,.cls-10{fill:#231f20;}.cls-2{fill:#fcee1f;}.cls-3{fill:#282726;opacity:0.19;}.cls-4{fill:#e92929;}.cls-5{fill:#f9e41d;}.cls-6{fill:#eb3627;}.cls-7{fill:#ee5326;}.cls-8{fill:#ffcb09;}.cls-9{fill:#f9ed21;}.cls-10{font-size:16.17px;font-family:TwCenMT-Bold, Tw Cen MT;font-weight:700;}.cls-11{letter-spacing:-0.07em;}.cls-12{font-family:TwCenMT-Regular, Tw Cen MT;font-weight:400;}</style></defs><path class="cls-1" d="M126.79,270.6a2.56,2.56,0,0,1,1.78,2.75,2.6,2.6,0,0,1-2.13,2.36,17.77,17.77,0,0,1-3.79.15c-.34,0-.51-.2-.53-.53,0-.16,0-.32,0-.48v-7.79c0-.93,0-.94,1-.94a25.38,25.38,0,0,1,2.76.05,2.32,2.32,0,0,1,2,3.28A2.67,2.67,0,0,1,126.79,270.6Zm-3.39,2.45c0,2,0,2.07,2.1,1.78a3.47,3.47,0,0,0,.56-.11,1.57,1.57,0,0,0,1.16-1.46,1.72,1.72,0,0,0-1.66-1.92c-.5-.06-1,0-1.51,0s-.72.08-.66.61A10.81,10.81,0,0,1,123.4,273.05Zm0-4.34c.06.45-.25,1.2.14,1.45a2.63,2.63,0,0,0,2,0,1.32,1.32,0,0,0,1-.93,1.49,1.49,0,0,0-.31-1.67,2.87,2.87,0,0,0-2.61-.39c-.46.08-.12.83-.21,1.27A2.14,2.14,0,0,0,123.4,268.71Z"/><path class="cls-1" d="M177,271.09c1.29,1.18,1.58,2.81,2.23,4.26.15.31,0,.47-.31.52-.66.1-.88,0-1.15-.68s-.52-1.35-.8-2c-.63-1.48-1.12-1.76-2.82-1.62-.17.21-.08.47-.08.7,0,1,0,2,0,2.95,0,.6-.42.86-1,.65a.35.35,0,0,1-.25-.36c0-.22,0-.44,0-.66v-7.22c0-1.75-.13-1.47,1.54-1.49a18.18,18.18,0,0,1,2.09,0,2.5,2.5,0,0,1,2.1,3.55A2.85,2.85,0,0,1,177,271.09Zm-1.85-4h-.76a.31.31,0,0,0-.34.35c0,.89,0,1.77,0,2.66a.33.33,0,0,0,.34.36,4.85,4.85,0,0,0,2-.21,1.56,1.56,0,0,0,1-1.56,1.54,1.54,0,0,0-1.11-1.49A3.62,3.62,0,0,0,175.15,267.12Z"/><path class="cls-1" d="M202.73,269.39c0-1.23,0-2.26,0-3.3,0-.71,0-.74.63-.74s.61,0,.62.78,0,1.21,0,1.81c0,2.4,0,4.81,0,7.21,0,.66-.07.72-.58.72-.29,0-.51,0-.5-.39,0-.15,0-.33-.15-.42-.31.09-.5.36-.76.53a2.55,2.55,0,0,1-4-1.36,6.47,6.47,0,0,1,0-3.65,2.67,2.67,0,0,1,4.32-1.51C202.37,269.15,202.47,269.21,202.73,269.39Zm0,2.73a2.1,2.1,0,0,0-1-2.28,1.51,1.51,0,0,0-2.33.53,4.32,4.32,0,0,0,0,3.84,1.37,1.37,0,0,0,2,.62c.78-.44,1.48-1,1.32-2.07C202.72,272.61,202.74,272.45,202.74,272.12Z"/><path class="cls-1" d="M267.05,102.59a7,7,0,0,1,7,7,6.81,6.81,0,0,1-7,7,7,7,0,0,1-7-7.07A6.81,6.81,0,0,1,267.05,102.59ZM267,115.94a6.35,6.35,0,0,0,6.41-6.29,6.16,6.16,0,0,0-6.34-6.4,6.36,6.36,0,0,0-6.37,6.34A6.2,6.2,0,0,0,267,115.94Z"/><path class="cls-1" d="M165.77,275a3.53,3.53,0,0,1-2,1.07,2.43,2.43,0,0,1-2.7-1.61,5.78,5.78,0,0,1,0-4.27A2.6,2.6,0,0,1,165.2,269c.13.08.25.17.37.26.31-.13.19-.39.2-.59,0-.88,0-1.77,0-2.65,0-.63.05-.67.62-.67s.62,0,.63.66v9.11c0,.33.09.72-.46.76s-.71-.16-.67-.65C165.9,275.18,165.85,275.13,165.77,275Zm0-2.69A2.23,2.23,0,0,0,165,270a1.6,1.6,0,0,0-2.67.7,4.75,4.75,0,0,0,0,3.24,1.52,1.52,0,0,0,2.45.77A2.09,2.09,0,0,0,165.75,272.29Z"/><path class="cls-1" d="M151.24,272.36c0,.11,0,.4-.05.68a3.46,3.46,0,0,1-4.89,2.78,2.63,2.63,0,0,1-1.54-1.59,5.28,5.28,0,0,1,.05-3.89,3.23,3.23,0,0,1,3.41-1.89,2.91,2.91,0,0,1,2.85,2.33A5.66,5.66,0,0,1,151.24,272.36Zm-1.32-.24a5,5,0,0,0-.15-1.16,1.81,1.81,0,0,0-1.86-1.45,1.92,1.92,0,0,0-2,1.44,4.48,4.48,0,0,0,0,2.71,1.88,1.88,0,0,0,1.84,1.37,1.91,1.91,0,0,0,1.92-1.27A4.12,4.12,0,0,0,149.92,272.12Z"/><path class="cls-1" d="M133.73,272.51h-2c-.33,0-.44.15-.43.47a2,2,0,0,0,1.77,2,5,5,0,0,0,2.14-.26c.23-.06.52-.41.71,0a.67.67,0,0,1-.41.91c-.29.11-.61.15-.91.24a4.39,4.39,0,0,1-1.69.12,2.9,2.9,0,0,1-2.79-2.42,5.76,5.76,0,0,1,.15-3.08,3.17,3.17,0,0,1,4.42-1.79,3.3,3.3,0,0,1,1.52,3.41.44.44,0,0,1-.5.33Zm-.56-.87h1.52c.22,0,.33-.11.34-.34a1.78,1.78,0,0,0-1.82-1.89,2,2,0,0,0-1.89,1.89c0,.25.11.34.33.35Z"/><path class="cls-1" d="M184.08,272.51h-1.81c-.59,0-.63.08-.54.68a1.89,1.89,0,0,0,1.85,1.82,4.91,4.91,0,0,0,2.14-.33c.19-.06.42-.26.56,0a.71.71,0,0,1-.08.8.57.57,0,0,1-.23.15,5.16,5.16,0,0,1-4,0,2.52,2.52,0,0,1-1.33-1.53,5.5,5.5,0,0,1,0-3.54,3.16,3.16,0,0,1,4.3-1.92,3.28,3.28,0,0,1,1.65,3.51c-.09.27-.29.3-.52.3Zm-.52-.87H185c.25,0,.42-.05.43-.37a1.78,1.78,0,0,0-1.84-1.86,2,2,0,0,0-1.87,1.89c0,.25.13.33.34.34Z"/><path class="cls-1" d="M209.49,272.51c-.63,0-1.27,0-1.9,0-.38,0-.49.15-.48.51a1.93,1.93,0,0,0,1.6,1.94,4.62,4.62,0,0,0,2.33-.23c.2-.06.44-.37.64,0a.72.72,0,0,1-.31,1,5.11,5.11,0,0,1-4,0A2.6,2.6,0,0,1,206,274a5.54,5.54,0,0,1,0-3.37,3.19,3.19,0,0,1,4.39-1.87A3.29,3.29,0,0,1,212,272.1a.51.51,0,0,1-.56.41Zm-2.31-.87h3.2c.26,0,.39-.09.41-.38a1.77,1.77,0,0,0-2.45-1.73A1.94,1.94,0,0,0,207.18,271.64Z"/><path class="cls-1" d="M234.11,274.58c.1,1,.06,1.07-.74,1.26a5.74,5.74,0,0,1-2.91.07,2.69,2.69,0,0,1-2-1.87,5.43,5.43,0,0,1,0-3.45,3.19,3.19,0,0,1,4.41-1.85,3.26,3.26,0,0,1,1.58,3.38.47.47,0,0,1-.47.38H230.6c-1.12,0-1.26.2-.87,1.25a1.76,1.76,0,0,0,1.36,1.18,4.35,4.35,0,0,0,2.15-.15A2.1,2.1,0,0,1,234.11,274.58Zm-2.72-2.94c.44,0,.89,0,1.33,0s.55-.13.52-.55a1.71,1.71,0,0,0-1.87-1.69,2,2,0,0,0-1.8,1.86c0,.3.15.37.41.37Z"/><path class="cls-1" d="M140.49,274.36c.57-1.64,1.07-3.07,1.56-4.5.08-.24.17-.48.23-.72a.65.65,0,0,1,.79-.5c.53,0,.64.14.48.62-.27.81-.58,1.61-.87,2.41-.77,2.11-1.53,4.21-2.28,6.32-.12.32-.22.56-.62.61-.84.08-1-.06-.66-.84a5.71,5.71,0,0,0,.63-1.77,5.5,5.5,0,0,0-.63-1.76c-.59-1.59-1.2-3.19-1.78-4.79-.09-.24-.35-.53,0-.75a1,1,0,0,1,1.16.31,4.15,4.15,0,0,1,.2.53l1.44,4C140.24,273.74,140.33,273.94,140.49,274.36Z"/><path class="cls-1" d="M154.32,269.62a6,6,0,0,1,1-.83,2.27,2.27,0,0,1,3.51,1.66,36.71,36.71,0,0,1,.11,4.92c0,.44-.27.5-.62.51s-.66-.11-.65-.59c0-1.26,0-2.53,0-3.79a2.59,2.59,0,0,0-.24-1.29,1.24,1.24,0,0,0-1.16-.69,2.17,2.17,0,0,0-2,1.92c0,1.27,0,2.53,0,3.8,0,.41-.08.66-.57.64s-.65-.06-.65-.65c0-2,0-3.92,0-5.88,0-.35-.06-.71.49-.72s.69.21.65.68A1,1,0,0,0,154.32,269.62Z"/><path class="cls-1" d="M215.2,269.57a4.56,4.56,0,0,1,1.46-1,2.25,2.25,0,0,1,3,1.72,10.47,10.47,0,0,1,.14,2.17c0,.89,0,1.77,0,2.66,0,.68-.09.75-.67.74s-.59-.07-.6-.71c0-1.23,0-2.47,0-3.7a2.59,2.59,0,0,0-.22-1.2,1.3,1.3,0,0,0-1.32-.74,2.2,2.2,0,0,0-1.83,2c0,1.23,0,2.47,0,3.7,0,.66-.15.75-.79.7-.33,0-.43-.2-.43-.5v-6.26c0-.3.1-.49.44-.48s.59-.05.68.33C215.12,269.15,215,269.34,215.2,269.57Z"/><path class="cls-1" d="M188.12,274.34c.52.17.9.48,1.37.59a2.53,2.53,0,0,0,1.31,0,1,1,0,0,0,.24-1.81c-.33-.18-.68-.32-1-.47a4.92,4.92,0,0,1-1.09-.57,1.93,1.93,0,0,1,.24-3.26,3,3,0,0,1,2.56-.16c.66.24.74.42.63,1.24-.31.09-.51-.16-.76-.27a2.3,2.3,0,0,0-1.39-.18,1,1,0,0,0-.81.71.93.93,0,0,0,.4,1.07,7.49,7.49,0,0,0,.84.44c.38.17.76.31,1.13.5a1.81,1.81,0,0,1,1,1.78,2,2,0,0,1-1.18,1.81,3.57,3.57,0,0,1-3.11-.05C188,275.45,188,275.29,188.12,274.34Z"/><path class="cls-1" d="M226.83,274.19c.3.93.22,1.16-.54,1.51-1.72.81-4.2.44-4.57-2.41a6.18,6.18,0,0,1,.25-2.9,3.06,3.06,0,0,1,4.4-1.55c.25.13.52.28.57.6s.13.53-.1.71-.41-.06-.59-.18a2.63,2.63,0,0,0-.85-.39,1.74,1.74,0,0,0-2.27,1.3,4.84,4.84,0,0,0,0,2.72,1.8,1.8,0,0,0,2.68,1.2C226.16,274.63,226.43,274.29,226.83,274.19Z"/><path class="cls-1" d="M194.54,272.27c0-1,0-2,0-2.94,0-.63.09-.69.62-.69s.59.06.59.72c0,2,0,3.92,0,5.88,0,.42-.1.66-.58.64s-.63-.06-.64-.67C194.53,274.23,194.54,273.25,194.54,272.27Z"/><path class="cls-1" d="M195.91,266.53c0,.58-.2.79-.79.78s-.73-.2-.74-.73.23-.8.79-.79S195.9,266,195.91,266.53Z"/><path class="cls-1" d="M266.66,112.71h-2a1.24,1.24,0,0,0,.71-1.31c0-1.23.07-2.46-.05-3.7,0-.44-.09-.85-.61-1a14.65,14.65,0,0,1,3.62-.05,1.43,1.43,0,0,1,1.12,2.13,1.25,1.25,0,0,1-.62.56l-.66.31a2.38,2.38,0,0,1,1.21,1.88,1.24,1.24,0,0,0,1,1.15c-.15.08-.2.14-.24.13-1.68-.05-1.48.14-1.81-1.48-.05-.21-.07-.44-.14-.65a1.41,1.41,0,0,0-1.72-1c-.25,0-.3.2-.3.4,0,.61,0,1.21,0,1.81A1.1,1.1,0,0,0,266.66,112.71Zm-.5-4.63h0v.57c0,.86.05.9.94.79a2.38,2.38,0,0,0,.37-.06,1.43,1.43,0,0,0,1.18-1.5,1.49,1.49,0,0,0-1.31-1.3c-.73-.12-1.12.19-1.15.93Z"/><rect class="cls-2" x="99.31" y="97.33" width="156.31" height="156.3" rx="20.27"/><path class="cls-3" d="M255.62,179.22v54.15a20.28,20.28,0,0,1-20.27,20.27H220L190.11,219.4l34.17-73.49Z"/><path class="cls-1" d="M188.83,217.53,178,170.72c-.19.06-.17.31-.21.5-1.4,6.78-3,13.52-4.58,20.26-2,8.58-4,17.16-6.06,25.74,0,0,0,.07,0,.1-.35,1.22,0,1-1.28,1H153.13c-1.08,0-1.08,0-1.36-1L143,185.57q-6.28-22.86-12.58-45.71l-.15-.55c-.11-.36.06-.47.39-.46.16,0,.32,0,.48,0H148c.91,0,.92,0,1.13.88q4,16.68,8,33.37c1,4,1.93,8.11,2.89,12.16,0,.15,0,.33.3.43l.63-2.64c2.51-10.87,5.2-21.69,7.84-32.53.87-3.58,1.74-7.17,2.64-10.74.27-1.08.09-.92,1.19-.93H183.4c.88,0,.88,0,1.09.84q4.17,16.84,8.34,33.69c.82,3.3,1.8,6.55,2.36,9.91.15.92.28,1.84.44,2.76a2.22,2.22,0,0,1-.08.85l-6.27,29.64c-.07.34-.16.68-.24,1Z"/><path class="cls-1" d="M220.35,147.05a12.68,12.68,0,0,0,3.93-1.15c.15.35,0,.61-.11.87-6.62,24-13.06,48-19.58,72.08-.31,1.16-.35.93-1.21.91L193,219.49a23.1,23.1,0,0,0-2.88-.09c-.29-.15-.16-.37-.12-.59l3.09-14.87q2.64-12.76,5.29-25.52,2.38-11.49,4.76-23c.74-3.54,1.46-7.09,2.2-10.64.06-.31.15-.61.24-1a27.59,27.59,0,0,0,4.11,2,23.78,23.78,0,0,0,9.15,1.46C219.34,147.23,219.84,147.12,220.35,147.05Z"/><path class="cls-4" d="M227.21,141.09c-.74.62-1.46,1.25-2.21,1.85a18.59,18.59,0,0,1-2.72,1.62,16.78,16.78,0,0,1-6.39,1.19,14.71,14.71,0,1,1,15-16.89,14.51,14.51,0,0,1-3.19,11.53C227.54,140.61,227.38,140.85,227.21,141.09ZM211,122.23a2.18,2.18,0,0,0-.11,1v8c0,.23,0,.45,0,.68,0,.48-.29.48-.64.48s-.65,0-.65-.48,0-.83,0-1.25c0-.22-.09-.36-.34-.36s-.45,0-.46.35,0,.7,0,1.06-.09.75-.63.68-.61.16-.6.61q0,3.13,0,6.26c0,.51.19.66.68.66h16.19c.69,0,.71,0,.71-.7,0-3.86,0-7.71,0-11.56,0-.71,0-.73-.78-.73-1,0-2,0-3,0-.81,0-.85,0-.83-.76,0-.59-.16-.92-.74-1a.63.63,0,0,1-.55-.76c0-.48,0-1,0-1.44,0-.25,0-.54-.34-.57s-.46.23-.47.55a6.2,6.2,0,0,1-.08,1.61c-.51.06-.76-.13-.75-.63s0-.71,0-1.06-.11-.49-.45-.48-.4.23-.42.52a2.14,2.14,0,0,1-.16,1.17Z"/><path class="cls-5" d="M211,122.23l5.56,1.82a2.14,2.14,0,0,0,.16-1.17c0-.29.07-.51.42-.52s.45.17.45.48,0,.71,0,1.06.24.69.75.63a6.2,6.2,0,0,0,.08-1.61c0-.32.06-.58.47-.55s.34.32.34.57c0,.48,0,1,0,1.44a.63.63,0,0,0,.55.76c.58.1.77.43.74,1,0,.74,0,.75.83.76,1,0,2,0,3,0,.76,0,.78,0,.78.73,0,3.85,0,7.7,0,11.56,0,.68,0,.7-.71.7H208.24c-.49,0-.68-.15-.68-.66q0-3.12,0-6.26c0-.45.13-.67.6-.61s.66-.22.63-.68,0-.71,0-1.06.21-.36.46-.35.34.14.34.36c0,.42,0,.83,0,1.25s.31.48.65.48.67,0,.64-.48c0-.23,0-.45,0-.68v-8A2.18,2.18,0,0,1,211,122.23Zm.69,1.25v4.29c0,1.28,0,2.56,0,3.85,0,.77,0,.77.81.78h1.06c1.11,0,1.06-.1,1.07,1v4.23c0,1.53.11,1.63,1.63,1.43h.09a.34.34,0,0,0,.36-.36,1.27,1.27,0,0,0-.61-1.36,1.51,1.51,0,0,1-.36-2.07,1.69,1.69,0,0,1,2-.68,1.67,1.67,0,0,1,1,1.87,1.56,1.56,0,0,1-.85,1.11c-.54.3-.37.79-.32,1.2s.5.26.79.3a2.38,2.38,0,0,0,.38,0c.91,0,.92,0,.92-.9V126.84c0-.87,0-.87-.82-1.14-2.09-.7-4.19-1.41-6.29-2.1C212.35,123.52,212.09,123.32,211.7,123.48Zm10.91,14.76c.31-.08.84.22.86-.5s0-.81-.79-.81c-.15,0-.31,0-.47,0s-.44.17-.48.48C221.65,138.12,221.76,138.24,222.61,138.24Zm0-6.25c.83,0,.87,0,.87-.67s0-.63-.85-.63h-.1c-.72,0-.83.14-.75.83S222.28,131.94,222.59,132Zm-.07-2.09c.66,0,.79,0,.88-.19a.73.73,0,0,0-.68-1.12h-.57c-.24,0-.33.13-.37.35C221.66,129.65,221.83,129.88,222.52,129.9Zm0,6.23h.19c.68,0,.7,0,.7-.59s0-.62-.66-.64h-.48c-.4,0-.57.15-.58.56C221.74,136.07,221.79,136.12,222.57,136.13Zm0-2.1c.83,0,.87,0,.86-.66s0-.56-.82-.57h-.19c-.65,0-.76.16-.69.8S222.3,134,222.59,134Zm-10.17,0c-.44,0-.74,0-.73.48s.39.41.7.42.65,0,.63-.48S212.63,134,212.42,134Zm-2.55.9c.35,0,.65,0,.63-.48s-.38-.42-.69-.43-.64,0-.62.49S209.57,134.9,209.87,134.92Zm2.5,1.69c.32,0,.66,0,.65-.46s-.37-.43-.67-.44-.67-.05-.66.45S212.05,136.6,212.37,136.61Zm-2.52,0c.33,0,.65,0,.65-.46s-.35-.43-.66-.44-.66-.05-.65.45S209.53,136.6,209.85,136.61Zm2.48,1.62c.27,0,.66.13.67-.39s-.36-.42-.65-.42-.66-.07-.64.44S212.06,138.2,212.33,138.23Zm-2.45,0c.23,0,.6.12.62-.39s-.27-.44-.57-.42-.67-.15-.72.34S209.5,138.23,209.88,138.23Z"/><path class="cls-6" d="M211.7,123.48c.39-.16.65,0,.91.12,2.1.69,4.2,1.4,6.29,2.1.81.27.82.27.82,1.14V138.2c0,.89,0,.89-.92.9a2.38,2.38,0,0,1-.38,0c-.29,0-.73.16-.79-.3s-.22-.9.32-1.2a1.56,1.56,0,0,0,.85-1.11,1.67,1.67,0,0,0-1-1.87,1.69,1.69,0,0,0-2,.68,1.51,1.51,0,0,0,.36,2.07,1.27,1.27,0,0,1,.61,1.36.34.34,0,0,1-.36.36h-.09c-1.52.2-1.63.1-1.63-1.43v-4.23c0-1.13,0-1-1.07-1h-1.06c-.8,0-.81,0-.81-.78,0-1.29,0-2.57,0-3.85Zm4,8h2.59c.27,0,.51,0,.5-.4s-.25-.39-.52-.39h-5.17c-.28,0-.51,0-.5.41s.26.38.52.38Zm-.09-3.32h2.68c.27,0,.51,0,.5-.4s-.25-.38-.52-.38c-1.72,0-3.44,0-5.17,0-.27,0-.51,0-.5.39s.25.39.52.39Zm-1.3.83H213c-.28,0-.39.17-.39.44a.37.37,0,0,0,.4.43h2.59c.23,0,.33-.16.33-.38s0-.46-.34-.47Zm2.8,4.18h1.25c.26,0,.43-.07.43-.37s-.14-.4-.4-.4h-2.5c-.3,0-.39.15-.38.42a.31.31,0,0,0,.35.34Zm-3.33-6.71h.94c.3,0,.35-.22.34-.46s-.17-.32-.38-.32H213c-.28,0-.38.14-.37.42s.16.38.42.37Zm4,3.38v0c.23,0,.45,0,.67,0s.31-.19.3-.41a.29.29,0,0,0-.28-.31,5.78,5.78,0,0,0-1.44,0,.32.32,0,0,0-.25.35c0,.18.06.34.24.36A6.48,6.48,0,0,0,217.83,129.86Z"/><path class="cls-7" d="M212.42,134c.21,0,.58-.09.6.42s-.3.5-.63.48-.68.09-.7-.42S212,134,212.42,134Z"/><path class="cls-7" d="M209.87,134.92c-.3,0-.67.09-.68-.42s.28-.5.62-.49.67-.07.69.43S210.22,134.94,209.87,134.92Z"/><path class="cls-7" d="M212.37,136.61c-.32,0-.67,0-.68-.45s.34-.45.66-.45.67-.08.67.44S212.69,136.61,212.37,136.61Z"/><path class="cls-7" d="M209.85,136.61c-.32,0-.66,0-.66-.45s.33-.45.65-.45.66-.07.66.44S210.18,136.61,209.85,136.61Z"/><path class="cls-6" d="M212.33,138.23c-.27,0-.6.08-.62-.37s.33-.45.64-.44.66-.09.65.42S212.6,138.18,212.33,138.23Z"/><path class="cls-6" d="M209.88,138.23c-.38,0-.73,0-.67-.47s.45-.32.72-.34.58,0,.57.42S210.11,138.21,209.88,138.23Z"/><path class="cls-5" d="M215.72,131.5h-2.58c-.26,0-.52,0-.52-.38s.22-.41.5-.41h5.17c.27,0,.51,0,.52.39s-.23.4-.5.4Z"/><path class="cls-5" d="M215.63,128.18h-2.49c-.27,0-.52,0-.52-.39s.23-.39.5-.39c1.73,0,3.45,0,5.17,0,.27,0,.52,0,.52.38s-.23.4-.5.4Z"/><path class="cls-8" d="M214.33,129h1.25c.29,0,.35.22.34.47s-.1.37-.33.38H213a.37.37,0,0,1-.4-.43c0-.27.11-.43.39-.44h1.34Z"/><path class="cls-9" d="M217.13,133.19h-1.25a.31.31,0,0,1-.35-.34c0-.27.08-.42.38-.42h2.5c.26,0,.4.1.4.4s-.17.37-.43.37h-1.25Z"/><path class="cls-5" d="M213.8,126.48H213c-.26,0-.42-.08-.42-.37s.09-.42.37-.42h1.71c.21,0,.37.07.38.32s0,.45-.34.46Z"/><text class="cls-10" transform="translate(125.76 233.86)">WES<tspan class="cls-11" x="28.25" y="0">T</tspan><tspan x="34.87" y="0">AN</tspan><tspan class="cls-12" x="57.12" y="0">HOMES</tspan></text></svg>