<svg id="Layer_1" data-name="Layer 1" xmlns="http://www.w3.org/2000/svg" viewBox="0 0 463.96 116.01"><defs><style>.cls-1,.cls-14{fill:#231f20;}.cls-2{fill:#fcee1f;}.cls-3{fill:#282726;opacity:0.19;}.cls-11,.cls-4{fill:#121212;}.cls-5{fill:#e92929;}.cls-6{fill:#f9e41d;}.cls-7{fill:#eb3627;}.cls-8{fill:#ee5326;}.cls-9{fill:#ffcb09;}.cls-10{fill:#f9ed21;}.cls-11{font-size:12px;font-family:TwCenMT-Bold, Tw Cen MT;}.cls-11,.cls-14{font-weight:700;}.cls-12{letter-spacing:-0.07em;}.cls-13{font-family:TwCenMT-Regular, Tw Cen MT;letter-spacing:0em;}.cls-13,.cls-16,.cls-17{font-weight:400;}.cls-14{font-size:45.98px;font-family:Generica-Bold, Generica;}.cls-15{letter-spacing:-0.12em;}.cls-16,.cls-17{font-family:Generica;}.cls-16{letter-spacing:0em;}.cls-17{font-size:38.83px;}</style></defs><path class="cls-1" d="M463.29,56.64a5.16,5.16,0,0,1,5.18,5.2,5.06,5.06,0,0,1-5.2,5.22,5.22,5.22,0,0,1-5.22-5.25A5.06,5.06,0,0,1,463.29,56.64Zm-.07,9.91A4.71,4.71,0,0,0,468,61.88a4.57,4.57,0,0,0-4.71-4.75,4.72,4.72,0,0,0-4.72,4.71A4.6,4.6,0,0,0,463.22,66.55Z" transform="translate(-4.51 -47.53)"/><path class="cls-1" d="M463,64.15h-1.51a.91.91,0,0,0,.52-1c0-.91.05-1.83,0-2.74,0-.33-.07-.64-.46-.79a11.55,11.55,0,0,1,2.69,0,1.06,1.06,0,0,1,.83,1.58,1,1,0,0,1-.46.43l-.49.23a1.74,1.74,0,0,1,.9,1.39.91.91,0,0,0,.76.85c-.11.06-.14.1-.18.1-1.25,0-1.09.1-1.34-1.1,0-.16-.05-.32-.1-.48a1.06,1.06,0,0,0-1.28-.72.26.26,0,0,0-.22.3c0,.45,0,.9,0,1.34A.82.82,0,0,0,463,64.15Zm-.37-3.44h0v.42c0,.65,0,.67.69.6l.28,0a1.07,1.07,0,0,0,.88-1.11,1.11,1.11,0,0,0-1-1c-.54-.09-.83.14-.85.69C462.62,60.43,462.63,60.57,462.63,60.71Z" transform="translate(-4.51 -47.53)"/><rect class="cls-2" width="116.02" height="116.01" rx="15.04"/><path class="cls-3" d="M120.53,108.31V148.5a15,15,0,0,1-15,15H94.06L71.9,138.13,97.26,83.58Z" transform="translate(-4.51 -47.53)"/><path class="cls-4" d="M71,136.75l-8-34.75c-.14,0-.12.23-.15.37-1,5-2.24,10-3.4,15q-2.23,9.56-4.5,19.1a.2.2,0,0,0,0,.07c-.27.91,0,.78-1,.78H44.45c-.8,0-.8,0-1-.74Q40.21,124.83,37,113L27.63,79.1c0-.14-.07-.28-.12-.42s0-.34.29-.33H40.61c.67,0,.68,0,.84.65l6,24.77q1.08,4.51,2.14,9c0,.11,0,.24.23.31.15-.66.31-1.31.46-2C52.11,103.08,54.11,95,56.07,87q1-4,2-8c.2-.81.06-.69.88-.69,2.67,0,5.34,0,8,0,.65,0,.65,0,.81.62q3.09,12.5,6.19,25c.61,2.44,1.33,4.86,1.75,7.35.12.68.21,1.37.33,2.05a1.9,1.9,0,0,1-.06.63l-4.65,22-.18.75Z" transform="translate(-4.51 -47.53)"/><path class="cls-4" d="M94.35,84.43a9.36,9.36,0,0,0,2.91-.85c.11.25,0,.45-.08.64-4.91,17.82-9.69,35.66-14.53,53.5-.23.86-.26.69-.9.68L74,138.2a17,17,0,0,0-2.14-.07c-.21-.11-.12-.27-.08-.43l2.28-11L78,107.71l3.54-17c.54-2.63,1.08-5.27,1.63-7.9,0-.23.11-.45.18-.72a19.36,19.36,0,0,0,3.05,1.46,17.44,17.44,0,0,0,6.79,1.08A10.93,10.93,0,0,0,94.35,84.43Z" transform="translate(-4.51 -47.53)"/><path class="cls-5" d="M99.44,80c-.55.46-1.08.93-1.64,1.38a14.14,14.14,0,0,1-2,1.2,12.39,12.39,0,0,1-4.74.88,10.92,10.92,0,1,1,11.14-12.53,10.72,10.72,0,0,1-2.37,8.56C99.68,79.65,99.56,79.83,99.44,80Zm-12-14a1.66,1.66,0,0,0-.07.75c0,2,0,4,0,5.94,0,.17,0,.33,0,.5,0,.36-.22.36-.47.36s-.49,0-.48-.36,0-.62,0-.93a.24.24,0,0,0-.26-.27c-.18,0-.33,0-.33.26s0,.53,0,.79-.06.56-.46.51-.46.12-.45.45q0,2.33,0,4.65c0,.37.13.49.5.48h12c.51,0,.52,0,.52-.52q0-4.29,0-8.58c0-.53,0-.54-.58-.55-.74,0-1.48,0-2.22,0-.59,0-.63,0-.61-.57s-.12-.68-.55-.75-.42-.26-.41-.57,0-.71,0-1.07c0-.18,0-.4-.26-.42s-.34.17-.35.41a4.38,4.38,0,0,1-.06,1.2c-.37,0-.56-.1-.55-.47s0-.53,0-.79-.08-.36-.33-.35-.3.17-.31.38a1.52,1.52,0,0,1-.12.87Z" transform="translate(-4.51 -47.53)"/><path class="cls-6" d="M87.41,66l4.13,1.35a1.52,1.52,0,0,0,.12-.87c0-.21,0-.38.31-.38s.34.12.33.35,0,.52,0,.79.18.51.55.47a4.38,4.38,0,0,0,.06-1.2c0-.24,0-.43.35-.41s.25.24.26.42c0,.36,0,.72,0,1.07s.09.51.41.57.57.32.55.75,0,.56.61.57c.74,0,1.48,0,2.22,0,.57,0,.58,0,.58.55q0,4.29,0,8.58c0,.5,0,.52-.52.52h-12c-.37,0-.51-.11-.5-.48q0-2.32,0-4.65c0-.33.1-.5.45-.45s.49-.17.46-.51,0-.53,0-.79.15-.26.33-.26a.24.24,0,0,1,.26.27c0,.31,0,.62,0,.93s.23.36.48.36.49,0,.47-.36c0-.17,0-.33,0-.5,0-2,0-4,0-5.94A1.66,1.66,0,0,1,87.41,66Zm.52.93v3.18c0,.95,0,1.9,0,2.86,0,.57,0,.57.61.58h.78c.83,0,.79-.08.79.76v3.14c0,1.14.09,1.21,1.21,1.06h.07a.26.26,0,0,0,.27-.27.94.94,0,0,0-.45-1,1.13,1.13,0,0,1-.27-1.54,1.24,1.24,0,0,1,1.5-.5,1.22,1.22,0,0,1,.75,1.39,1.15,1.15,0,0,1-.63.82c-.4.22-.27.58-.23.89s.37.19.58.23a2.81,2.81,0,0,0,.29,0c.67,0,.68,0,.68-.67V69.43c0-.64,0-.65-.61-.85L88.6,67C88.41,67,88.22,66.82,87.93,66.94Zm8.1,11c.23-.06.62.16.63-.37s0-.6-.58-.6c-.12,0-.24,0-.35,0s-.33.12-.36.35C95.31,77.8,95.39,77.89,96,77.89Zm0-4.64c.62,0,.65,0,.65-.5s0-.46-.64-.46H96c-.54,0-.61.1-.56.62S95.78,73.22,96,73.25ZM96,71.7c.49,0,.58,0,.65-.14a.54.54,0,0,0-.51-.83h-.42c-.17,0-.24.1-.27.26C95.32,71.52,95.45,71.69,96,71.7Zm0,4.62h.15c.5,0,.51,0,.52-.44s0-.46-.49-.48h-.36c-.3,0-.43.11-.43.42C95.38,76.28,95.41,76.32,96,76.32Zm0-1.55c.62,0,.65,0,.64-.5s0-.41-.61-.41H95.9c-.49,0-.56.11-.51.59S95.8,74.71,96,74.77Zm-7.55,0c-.32,0-.55,0-.54.35s.29.31.51.32.49,0,.48-.36S88.62,74.77,88.46,74.76Zm-1.89.67c.26,0,.48,0,.47-.36s-.29-.31-.51-.32-.48,0-.47.36S86.35,75.41,86.57,75.43Zm1.85,1.25c.24,0,.49,0,.49-.34s-.28-.32-.5-.32-.5,0-.49.33S88.19,76.67,88.42,76.68Zm-1.87,0c.24,0,.49,0,.49-.34s-.27-.32-.5-.33-.49,0-.48.34S86.32,76.68,86.55,76.68Zm1.84,1.2c.2,0,.5.1.5-.29s-.27-.31-.48-.31-.49,0-.48.33S88.19,77.86,88.39,77.88Zm-1.81,0c.16,0,.44.08.45-.3s-.2-.32-.41-.31-.5-.11-.54.26S86.29,77.88,86.58,77.89Z" transform="translate(-4.51 -47.53)"/><path class="cls-7" d="M87.93,66.94c.29-.12.48,0,.67.09l4.67,1.55c.6.2.61.21.61.85v8.43c0,.66,0,.66-.68.67a2.81,2.81,0,0,1-.29,0c-.21,0-.54.11-.58-.23s-.17-.67.23-.89a1.15,1.15,0,0,0,.63-.82,1.22,1.22,0,0,0-.75-1.39,1.24,1.24,0,0,0-1.5.5,1.13,1.13,0,0,0,.27,1.54.94.94,0,0,1,.45,1,.26.26,0,0,1-.27.27h-.07c-1.12.15-1.21.08-1.21-1.06V74.32c0-.84,0-.76-.79-.76h-.78c-.6,0-.61,0-.61-.58,0-1,0-1.91,0-2.86Zm3,6h1.92c.2,0,.38,0,.38-.3s-.2-.28-.39-.28H89c-.21,0-.38,0-.37.29s.19.29.38.29Zm-.07-2.47h2c.2,0,.38,0,.38-.29s-.2-.29-.39-.29H89c-.2,0-.38,0-.37.3s.18.28.38.28Zm-1,.62h0c-.33,0-.67,0-1,0s-.29.12-.29.32a.28.28,0,0,0,.3.32h1.92c.17,0,.25-.12.25-.28s0-.34-.26-.35S90.19,71,89.88,71ZM92,74.15h.93c.18,0,.31-.05.31-.28s-.1-.29-.3-.29H91.05c-.22,0-.29.11-.28.31a.23.23,0,0,0,.26.26Zm-2.48-5h0c.24,0,.47,0,.71,0s.25-.16.25-.34-.13-.24-.28-.24H88.89c-.22,0-.29.1-.28.31s.12.28.31.28Zm3,2.5v0a4.17,4.17,0,0,0,.5,0c.17,0,.22-.14.22-.3s-.07-.22-.21-.23a4.26,4.26,0,0,0-1.07,0,.24.24,0,0,0-.19.26c0,.13,0,.25.18.27A5.46,5.46,0,0,0,92.48,71.67Z" transform="translate(-4.51 -47.53)"/><path class="cls-8" d="M88.46,74.76c.16,0,.43-.07.45.31s-.22.37-.48.36-.5.06-.51-.32S88.14,74.74,88.46,74.76Z" transform="translate(-4.51 -47.53)"/><path class="cls-8" d="M86.57,75.43c-.22,0-.5.06-.51-.32s.21-.37.47-.36.49,0,.51.32S86.83,75.44,86.57,75.43Z" transform="translate(-4.51 -47.53)"/><path class="cls-8" d="M88.42,76.68c-.23,0-.49,0-.5-.33s.25-.34.49-.33.49-.07.5.32S88.66,76.68,88.42,76.68Z" transform="translate(-4.51 -47.53)"/><path class="cls-8" d="M86.55,76.68c-.23,0-.49,0-.49-.33s.25-.34.48-.34.5-.05.5.33S86.79,76.68,86.55,76.68Z" transform="translate(-4.51 -47.53)"/><path class="cls-7" d="M88.39,77.88c-.2,0-.44.06-.46-.27s.25-.33.48-.33.49-.07.48.31S88.59,77.85,88.39,77.88Z" transform="translate(-4.51 -47.53)"/><path class="cls-7" d="M86.58,77.89c-.29,0-.55,0-.5-.35s.33-.24.54-.26.42,0,.41.31S86.74,77.87,86.58,77.89Z" transform="translate(-4.51 -47.53)"/><path class="cls-6" d="M90.91,72.89H89c-.19,0-.38,0-.38-.29s.16-.29.37-.29h3.84c.19,0,.38,0,.39.28s-.18.3-.38.3Z" transform="translate(-4.51 -47.53)"/><path class="cls-6" d="M90.84,70.42H89c-.2,0-.38,0-.38-.28s.17-.3.37-.3h3.84c.19,0,.38,0,.39.29s-.18.29-.38.29Z" transform="translate(-4.51 -47.53)"/><path class="cls-9" d="M89.88,71c.31,0,.62,0,.92,0s.27.16.26.35-.08.28-.25.28H88.89a.28.28,0,0,1-.3-.32c0-.2.08-.32.29-.32s.67,0,1,0Z" transform="translate(-4.51 -47.53)"/><path class="cls-10" d="M92,74.15H91a.23.23,0,0,1-.26-.26c0-.2.06-.31.28-.31H92.9c.2,0,.31.07.3.29s-.13.28-.31.28Z" transform="translate(-4.51 -47.53)"/><path class="cls-6" d="M89.48,69.17h-.56c-.19,0-.31-.07-.31-.28s.06-.31.28-.31h1.27c.15,0,.27,0,.28.24s0,.33-.25.34-.47,0-.71,0Z" transform="translate(-4.51 -47.53)"/><text class="cls-11" transform="translate(19.62 101.33)">WES<tspan class="cls-12" x="20.97" y="0">T</tspan><tspan x="25.88" y="0">AN</tspan><tspan class="cls-13" x="42.4" y="0">HOMES</tspan></text><text class="cls-14" transform="translate(122.07 42.75)"><tspan class="cls-15">W</tspan><tspan x="52.22" y="0">estan </tspan><tspan class="cls-16" x="185.86" y="0">Homes </tspan><tspan class="cls-17"><tspan x="0" y="38.83">and Smart Cities</tspan></tspan></text><path class="cls-1" d="M136.69,147.29a2.89,2.89,0,0,1,2,3.1,2.93,2.93,0,0,1-2.4,2.66,20.21,20.21,0,0,1-4.26.17c-.39,0-.57-.23-.6-.6,0-.18,0-.36,0-.54q0-4.38,0-8.76c0-1.06,0-1.07,1.09-1.07a26.52,26.52,0,0,1,3.09.06,2.61,2.61,0,0,1,2.2,3.69A2.84,2.84,0,0,1,136.69,147.29Zm-3.81,2.76c0,2.3,0,2.33,2.37,2a4.4,4.4,0,0,0,.63-.13,1.77,1.77,0,0,0,1.3-1.64,2,2,0,0,0-1.86-2.17c-.57-.06-1.14,0-1.71,0s-.8.09-.74.69A10.92,10.92,0,0,1,132.88,150.05Zm0-4.88c.07.51-.27,1.35.16,1.64a3,3,0,0,0,2.26,0,1.49,1.49,0,0,0,1.1-1,1.68,1.68,0,0,0-.34-1.88c-.85-.81-2-.6-2.94-.44-.52.09-.13.93-.23,1.42A1.25,1.25,0,0,0,132.88,145.17Z" transform="translate(-4.51 -47.53)"/><path class="cls-1" d="M193.21,147.85c1.46,1.33,1.78,3.16,2.52,4.79.16.36,0,.53-.36.58-.74.12-1,0-1.29-.76s-.59-1.52-.91-2.27c-.71-1.67-1.26-2-3.17-1.82-.19.23-.09.52-.09.79,0,1.1,0,2.2,0,3.31,0,.68-.47,1-1.13.73a.41.41,0,0,1-.28-.4c0-.25,0-.5,0-.75v-8.12c0-2-.15-1.66,1.74-1.68a20.48,20.48,0,0,1,2.35.05,2.81,2.81,0,0,1,2.37,4A3.31,3.31,0,0,1,193.21,147.85Zm-2.08-4.48h-.86a.36.36,0,0,0-.38.41c0,1,0,2,0,3a.37.37,0,0,0,.39.41,5.68,5.68,0,0,0,2.21-.24,1.79,1.79,0,0,0,1.15-1.77,1.73,1.73,0,0,0-1.25-1.67A4.57,4.57,0,0,0,191.13,143.37Z" transform="translate(-4.51 -47.53)"/><path class="cls-1" d="M222.17,145.93c0-1.38,0-2.54,0-3.71,0-.8,0-.84.71-.83s.68.05.69.88c0,.68,0,1.35,0,2,0,2.71,0,5.41,0,8.12,0,.74-.09.81-.66.81-.32,0-.57,0-.56-.45,0-.16,0-.36-.17-.46-.35.09-.56.4-.86.59a2.88,2.88,0,0,1-4.49-1.53,7.33,7.33,0,0,1,0-4.1,3,3,0,0,1,4.86-1.71A6.14,6.14,0,0,0,222.17,145.93Zm0,3.08a2.35,2.35,0,0,0-1.12-2.57,1.72,1.72,0,0,0-2.63.59,4.88,4.88,0,0,0,0,4.33,1.55,1.55,0,0,0,2.26.7c.89-.5,1.67-1.13,1.49-2.33A5.56,5.56,0,0,1,222.18,149Z" transform="translate(-4.51 -47.53)"/><path class="cls-1" d="M180.57,152.23a3.9,3.9,0,0,1-2.19,1.2,2.73,2.73,0,0,1-3-1.82,6.47,6.47,0,0,1,0-4.8,2.92,2.92,0,0,1,4.57-1.32l.41.29c.35-.14.22-.43.23-.65,0-1,0-2,0-3,0-.71.06-.75.7-.75s.7,0,.7.74q0,5.13,0,10.26c0,.37.11.81-.51.84s-.8-.17-.76-.73C180.72,152.45,180.66,152.39,180.57,152.23Zm0-3a2.51,2.51,0,0,0-.88-2.61,1.79,1.79,0,0,0-3,.78,5.35,5.35,0,0,0,0,3.66,1.7,1.7,0,0,0,2.75.85A2.36,2.36,0,0,0,180.55,149.2Z" transform="translate(-4.51 -47.53)"/><path class="cls-1" d="M164.22,149.28a7.5,7.5,0,0,1-.06.76,3.89,3.89,0,0,1-5.5,3.13,3,3,0,0,1-1.73-1.79,5.92,5.92,0,0,1,0-4.38,3.64,3.64,0,0,1,3.83-2.12A3.29,3.29,0,0,1,164,147.5,7,7,0,0,1,164.22,149.28Zm-1.49-.28a5.26,5.26,0,0,0-.17-1.3,2,2,0,0,0-2.09-1.63,2.16,2.16,0,0,0-2.24,1.61,5.07,5.07,0,0,0,0,3.06,2.1,2.1,0,0,0,2.07,1.54,2.17,2.17,0,0,0,2.17-1.43A4.56,4.56,0,0,0,162.73,149Z" transform="translate(-4.51 -47.53)"/><path class="cls-1" d="M144.51,149.45h-2.24c-.37,0-.5.17-.48.53a2.2,2.2,0,0,0,2,2.26,5.49,5.49,0,0,0,2.41-.29c.26-.07.58-.45.8.06a.75.75,0,0,1-.46,1c-.33.13-.69.17-1,.28a5.3,5.3,0,0,1-1.9.13,3.26,3.26,0,0,1-3.14-2.72,6.54,6.54,0,0,1,.16-3.48,3.57,3.57,0,0,1,5-2,3.7,3.7,0,0,1,1.71,3.83.49.49,0,0,1-.56.38h-2.24Zm-.63-1h1.71c.25,0,.37-.12.38-.39a2,2,0,0,0-2.05-2.12,2.2,2.2,0,0,0-2.12,2.12c0,.28.12.39.37.39Z" transform="translate(-4.51 -47.53)"/><path class="cls-1" d="M201.18,149.44c-.68,0-1.36,0-2,0s-.72.08-.62.76a2.11,2.11,0,0,0,2.08,2,5.35,5.35,0,0,0,2.41-.36c.22-.07.48-.29.64,0a.81.81,0,0,1-.1.9.52.52,0,0,1-.26.17,5.8,5.8,0,0,1-4.46,0,2.83,2.83,0,0,1-1.5-1.73,6.17,6.17,0,0,1,0-4,3.56,3.56,0,0,1,4.83-2.17,3.68,3.68,0,0,1,1.86,4c-.1.31-.33.34-.58.34Zm-.59-1h1.6c.28,0,.47-.06.48-.42a2,2,0,0,0-2.06-2.1,2.2,2.2,0,0,0-2.11,2.13c0,.29.15.38.38.38Z" transform="translate(-4.51 -47.53)"/><path class="cls-1" d="M229.78,149.44c-.72,0-1.43,0-2.14,0-.43,0-.55.16-.54.57a2.17,2.17,0,0,0,1.8,2.18,5.19,5.19,0,0,0,2.62-.26c.23-.06.5-.41.73,0a.82.82,0,0,1-.36,1.08,5.71,5.71,0,0,1-4.46,0,2.93,2.93,0,0,1-1.57-1.93,6.25,6.25,0,0,1,0-3.78,3.6,3.6,0,0,1,5-2.11,3.69,3.69,0,0,1,1.8,3.8.56.56,0,0,1-.62.45Zm-2.6-1h3.59c.3,0,.45-.1.47-.43a2,2,0,0,0-2.76-1.95A2.19,2.19,0,0,0,227.18,148.47Z" transform="translate(-4.51 -47.53)"/><path class="cls-1" d="M257.49,151.78c.11,1.09.06,1.2-.84,1.41a6.36,6.36,0,0,1-3.27.08,3.07,3.07,0,0,1-2.21-2.1,6.16,6.16,0,0,1,0-3.89,3.59,3.59,0,0,1,4.95-2.08,3.69,3.69,0,0,1,1.79,3.8.52.52,0,0,1-.53.43h-3.85c-1.26,0-1.42.23-1,1.41a2,2,0,0,0,1.53,1.33,5,5,0,0,0,2.42-.16A2.25,2.25,0,0,1,257.49,151.78Zm-3.06-3.31c.5,0,1,0,1.49,0s.62-.14.58-.62a1.92,1.92,0,0,0-2.1-1.9,2.21,2.21,0,0,0-2,2.1c0,.34.17.42.46.42Z" transform="translate(-4.51 -47.53)"/><path class="cls-1" d="M152.12,151.53l1.76-5.07c.09-.26.18-.53.26-.81.12-.46.43-.59.88-.57s.73.16.54.71c-.3.91-.65,1.81-1,2.71q-1.29,3.56-2.57,7.12c-.12.35-.24.63-.69.67-.94.1-1.08,0-.75-.94a6.34,6.34,0,0,0,.72-2,6.45,6.45,0,0,0-.71-2c-.67-1.79-1.35-3.59-2-5.39-.09-.27-.39-.6,0-.84a1.08,1.08,0,0,1,1.3.34,4.31,4.31,0,0,1,.22.6c.55,1.5,1.09,3,1.63,4.51Z" transform="translate(-4.51 -47.53)"/><path class="cls-1" d="M167.68,146.2a6.56,6.56,0,0,1,1.16-.94,2.55,2.55,0,0,1,3.95,1.86,41.11,41.11,0,0,1,.13,5.55c0,.49-.3.56-.7.56s-.74-.12-.73-.65c0-1.43,0-2.85,0-4.28a2.92,2.92,0,0,0-.28-1.45,1.37,1.37,0,0,0-1.3-.77,2.43,2.43,0,0,0-2.21,2.16c0,1.43,0,2.85,0,4.27,0,.47-.09.75-.64.73s-.73-.06-.74-.73c0-2.21,0-4.42,0-6.63,0-.39-.07-.79.55-.8s.78.23.73.76A2.51,2.51,0,0,0,167.68,146.2Z" transform="translate(-4.51 -47.53)"/><path class="cls-1" d="M236.2,146.14a5.11,5.11,0,0,1,1.65-1.11,2.53,2.53,0,0,1,3.41,1.92,11.17,11.17,0,0,1,.15,2.45c0,1,0,2,0,3,0,.77-.1.85-.75.84s-.68-.08-.68-.8c0-1.39,0-2.78,0-4.17a2.76,2.76,0,0,0-.25-1.35,1.43,1.43,0,0,0-1.47-.83,2.48,2.48,0,0,0-2.07,2.2c0,1.39,0,2.78,0,4.17,0,.74-.16.85-.89.78-.37,0-.48-.22-.48-.55v-7.05c0-.34.11-.55.49-.54s.67-.06.77.37C236.11,145.66,236,145.88,236.2,146.14Z" transform="translate(-4.51 -47.53)"/><path class="cls-1" d="M205.73,151.51c.59.19,1,.54,1.53.66a2.75,2.75,0,0,0,1.48,0,1.09,1.09,0,0,0,.28-2,12.22,12.22,0,0,0-1.16-.54,5.75,5.75,0,0,1-1.23-.64,2.18,2.18,0,0,1,.27-3.67,3.37,3.37,0,0,1,2.89-.18c.74.27.83.47.71,1.4-.36.1-.58-.19-.85-.3a2.59,2.59,0,0,0-1.57-.21,1.1,1.1,0,0,0-.46,2,8.53,8.53,0,0,0,.95.49c.41.19.85.35,1.26.56a2,2,0,0,1,1.17,2,2.21,2.21,0,0,1-1.32,2,4,4,0,0,1-3.51-.06C205.57,152.75,205.54,152.57,205.73,151.51Z" transform="translate(-4.51 -47.53)"/><path class="cls-1" d="M249.3,151.33c.33,1.06.24,1.31-.62,1.71-1.93.9-4.72.49-5.14-2.72a6.92,6.92,0,0,1,.29-3.26,3.44,3.44,0,0,1,4.95-1.75c.28.15.58.32.63.68s.16.6-.11.79-.45-.06-.66-.19a3,3,0,0,0-1-.44,2,2,0,0,0-2.55,1.46,5.4,5.4,0,0,0,0,3.06,2,2,0,0,0,3,1.35C248.54,151.83,248.84,151.44,249.3,151.33Z" transform="translate(-4.51 -47.53)"/><path class="cls-1" d="M213,149.17c0-1.1,0-2.2,0-3.31,0-.7.1-.77.7-.77s.67.07.67.81c0,2.2,0,4.41,0,6.62,0,.47-.11.74-.66.72s-.71-.06-.72-.75C212.94,151.38,213,150.28,213,149.17Z" transform="translate(-4.51 -47.53)"/><path class="cls-1" d="M214.49,142.71c0,.65-.23.89-.88.88s-.83-.22-.84-.82.26-.9.89-.89S214.48,142.11,214.49,142.71Z" transform="translate(-4.51 -47.53)"/></svg>