<svg width="1440" height="347" viewBox="0 0 1440 347" fill="none" xmlns="http://www.w3.org/2000/svg">
<path fill-rule="evenodd" clip-rule="evenodd" d="M47.5 319.583C71.1409 319.583 93.9304 313.579 114.116 302.335L172.173 307.173L167.335 249.115C178.579 228.93 184.583 206.141 184.583 182.5C184.583 106.791 123.209 45.4167 47.5 45.4167C-28.209 45.4167 -89.5833 106.791 -89.5833 182.5C-89.5833 258.209 -28.209 319.583 47.5 319.583ZM103.91 276.568L107.702 274.289L142.16 277.16L139.289 242.702L141.568 238.91C151.725 222.013 157.167 202.672 157.167 182.5C157.167 121.933 108.067 72.8333 47.5 72.8333C-13.0672 72.8333 -62.1667 121.933 -62.1667 182.5C-62.1667 243.067 -13.0672 292.167 47.5 292.167C67.6723 292.167 87.0132 286.725 103.91 276.568ZM47.5045 251.019C55.0779 251.019 61.2174 244.882 61.2174 237.311C61.2174 229.74 55.0779 223.602 47.5045 223.602C39.9311 223.602 33.7917 229.74 33.7917 237.311C33.7917 244.882 39.9311 251.019 47.5045 251.019ZM33.7917 209.917H61.2084V196.208C61.2084 196.242 61.2731 196.17 61.4198 196.009C61.7796 195.612 62.6321 194.673 64.2309 193.405C65.604 192.315 66.03 192.033 69.4993 189.834C81.3055 182.349 88.625 169.334 88.625 155.083C88.625 132.371 70.2127 113.958 47.5 113.958C24.7873 113.958 6.37503 132.371 6.37503 155.083H33.7917C33.7917 147.512 39.9291 141.375 47.5 141.375C55.0709 141.375 61.2084 147.512 61.2084 155.083C61.2084 159.844 58.7756 164.17 54.8198 166.678C50.381 169.492 49.6442 169.98 47.1914 171.926C39.0384 178.394 33.7917 186.101 33.7917 196.208V209.917Z" fill="#27AE60" fill-opacity="0.3"/>
<path fill-rule="evenodd" clip-rule="evenodd" d="M1508.5 301.583C1532.14 301.583 1554.93 295.579 1575.12 284.335L1633.17 289.173L1628.34 231.115C1639.58 210.93 1645.58 188.141 1645.58 164.5C1645.58 88.791 1584.21 27.4167 1508.5 27.4167C1432.79 27.4167 1371.42 88.791 1371.42 164.5C1371.42 240.209 1432.79 301.583 1508.5 301.583ZM1564.91 258.568L1568.7 256.289L1603.16 259.16L1600.29 224.702L1602.57 220.91C1612.72 204.013 1618.17 184.672 1618.17 164.5C1618.17 103.933 1569.07 54.8333 1508.5 54.8333C1447.93 54.8333 1398.83 103.933 1398.83 164.5C1398.83 225.067 1447.93 274.167 1508.5 274.167C1528.67 274.167 1548.01 268.725 1564.91 258.568ZM1508.5 233.019C1516.08 233.019 1522.22 226.882 1522.22 219.311C1522.22 211.74 1516.08 205.602 1508.5 205.602C1500.93 205.602 1494.79 211.74 1494.79 219.311C1494.79 226.882 1500.93 233.019 1508.5 233.019ZM1494.79 191.917H1522.21V178.208C1522.21 178.242 1522.27 178.17 1522.42 178.009C1522.78 177.612 1523.63 176.673 1525.23 175.405C1526.6 174.315 1527.03 174.033 1530.5 171.834C1542.31 164.349 1549.63 151.334 1549.63 137.083C1549.63 114.371 1531.21 95.9583 1508.5 95.9583C1485.79 95.9583 1467.38 114.371 1467.38 137.083H1494.79C1494.79 129.512 1500.93 123.375 1508.5 123.375C1516.07 123.375 1522.21 129.512 1522.21 137.083C1522.21 141.844 1519.78 146.17 1515.82 148.678C1511.38 151.492 1510.64 151.98 1508.19 153.926C1500.04 160.394 1494.79 168.101 1494.79 178.208V191.917Z" fill="#27AE60" fill-opacity="0.3"/>
</svg>
